<svg width="1470" height="256" viewBox="0 0 1470 256" fill="none" xmlns="http://www.w3.org/2000/svg">
<path d="M10.9758 0.561139C60.0608 -0.583861 110.265 0.354158 159.455 0.499158C198.767 60.8432 240.644 120.554 280.093 180.87C295.969 205.145 313.937 230.178 329.136 254.683C298.852 255.883 257.849 255.13 227.225 254.757C201.853 219.428 175.202 177.103 150.602 140.477C136.104 118.656 116.189 86.8711 100.812 66.6221C100.969 128.398 104.973 193.496 104.483 254.865L7.0578 254.901C6.0588 220.011 5.49979 185.11 5.37879 150.206C34.3318 121.353 68.4858 93.9521 97.5268 64.9441C81.8398 64.5191 14.1598 67.7331 5.00379 62.0141C2.36479 60.3651 1.47579 58.2192 0.947788 55.2742C-0.359212 47.9802 -0.18721 18.1902 0.69379 10.5292C0.94779 8.32116 1.62381 6.01616 2.98481 4.23216C5.13481 1.41116 7.7118 1.05414 10.9758 0.561139Z" fill="#FEFEFE"/>
<path d="M452.757 63.1951L473.275 63.2721L473.215 190.492L471.957 191.636C468.365 191.312 464.261 185.728 461.702 182.941C439.466 158.718 417.278 134.448 395.106 110.166C397.024 133.635 396.015 167.419 395.979 191.785L375.379 191.756L375.327 108.714C375.321 95.5501 374.755 75.0531 375.77 62.5001C381.349 64.7991 444.458 136.625 453.382 146.458C452.396 119.213 452.768 90.5851 452.757 63.1951Z" fill="#FEFEFE"/>
<path d="M717.941 109.002C732.198 108.754 739.542 111.674 749.733 121.48L750.483 110.718L769.263 110.731L769.213 191.779L750.523 191.756C750.483 188.719 750.763 183.754 749.503 181.241L748.073 182.249C742.763 187.786 735.895 191.589 728.381 193.159C718.342 195.111 707.938 193 699.454 187.29C670.401 167.922 674.209 115.961 714.974 109.148C715.961 109.064 716.951 109.016 717.941 109.002ZM730.77 177.222C758.863 165.93 753.154 122.239 718.616 125.061C702.656 131.75 697.337 148.865 704.136 164.229C706.57 169.856 711.167 174.266 716.889 176.465C721.077 178.033 726.387 177.704 730.77 177.222Z" fill="#FEFEFE"/>
<path d="M1104.99 109.133C1120.22 108.065 1128.34 111.225 1139.47 121.364L1139.7 110.725L1158.89 110.733L1158.74 191.783L1140.27 191.741C1140.08 187.677 1139.98 184.956 1139.27 180.958L1138.33 181.79C1132.28 187.691 1125.89 191.667 1117.46 193.235C1107.35 195.071 1096.94 192.788 1088.53 186.895C1079.36 180.482 1073.16 170.652 1071.32 159.619C1066.89 134.196 1078.79 113.27 1104.99 109.133ZM1120.87 177.178C1148.96 164.861 1141.69 122.134 1108.83 124.982C1081.73 135.062 1084.81 181.306 1120.87 177.178Z" fill="#FEFEFE"/>
<path d="M529.029 108.884C552.259 105.014 574.263 120.599 578.322 143.797C582.38 166.994 566.973 189.124 543.809 193.37C520.379 197.665 497.937 182.042 493.832 158.577C489.727 135.113 505.532 112.799 529.029 108.884ZM542.481 177.239C567.645 166.31 563.23 122.08 530.283 125.028C503.784 137.269 509.471 180.961 542.481 177.239Z" fill="#FEFEFE"/>
<path d="M1261.54 109.165C1295.83 107.188 1306.67 125.798 1303.77 157.892C1284.71 158.373 1264.55 157.909 1245.3 158.159C1245.89 160.058 1246.53 161.938 1247.24 163.796C1254.93 183.407 1277.47 178.774 1292.97 172.85C1295.16 176.829 1297.29 182.496 1299.06 186.799C1282.98 194.532 1255.3 197.901 1241.37 186.015C1212.48 161.374 1222.14 114.921 1261.54 109.165ZM1286.09 137.937C1281.84 126.614 1271.5 124.285 1261.67 124.962C1250.14 128.776 1248.61 133.082 1245.33 144.442L1270.32 144.473C1273.83 144.492 1281.34 144.969 1284.12 143.638C1285.13 142.06 1286.81 139.839 1286.09 137.937Z" fill="#FEFEFE"/>
<path d="M888.103 109.169C891.553 108.915 895.013 108.89 898.462 109.095C927.542 110.682 931.873 133.76 930.453 157.92C911.393 158.25 891.623 158.015 872.503 158.053C878.502 183.018 899.732 180.647 919.682 172.809C921.462 175.909 924.283 183.128 925.783 186.685C920.293 189.549 914.403 191.563 908.313 192.659C840.313 204.991 832.573 117.699 888.103 109.169ZM912.823 138.013C908.253 125.983 897.453 124.294 887.294 125.057C876.834 129.54 874.853 133.369 872.313 144.448L897.203 144.473C900.673 144.491 907.723 144.852 910.693 143.844C911.743 142.23 913.563 139.971 912.823 138.013Z" fill="#FEFEFE"/>
<path d="M1365.19 109.098C1366.65 109.017 1368.11 108.983 1369.57 108.995C1409.63 108.956 1399.27 151.191 1400.72 178.595C1400.94 182.79 1400.64 187.537 1400.6 191.782L1380.79 191.738C1380.92 171.532 1389.71 106.082 1352.57 129.885C1338.72 143.01 1342.98 173.273 1343.11 191.784L1323.25 191.747V110.721L1342.92 110.738L1343.14 122.933C1350.36 114.299 1354.07 111.262 1365.19 109.098Z" fill="#FEFEFE"/>
<path d="M985.954 63.2122L1072.72 63.2592L1072.57 80.0632L1039.23 80.1462L1039.21 158.113L1039.19 191.786L1018.79 191.737L1018.75 80.1702L985.844 80.0302L985.954 63.2122Z" fill="#FEFEFE"/>
<path d="M1445.69 74.4082C1448.91 74.0192 1448.75 73.4552 1450.66 74.8522C1451.66 83.8672 1451.01 101.072 1450.93 110.697L1469.61 110.728L1469.54 126.406L1450.94 126.442C1450.99 146.392 1451.7 170.827 1450.68 190.431C1448.74 192.313 1447.75 191.69 1444.34 191.836L1431.07 191.734L1431.12 126.543L1417.03 126.42L1417.02 110.725L1431.08 110.702L1431.12 77.4732L1445.69 74.4082Z" fill="#FEFEFE"/>
<path d="M652.67 110.724L674.584 110.765L662.979 132.895C658.229 142.093 636.498 185.613 631.49 191.294L629.84 191.076C622.9 185.556 592.03 123.682 585.265 110.765L607.761 110.724C615.56 127.407 623.476 143.416 630.43 160.503C636.782 143.665 644.99 127.05 652.67 110.724Z" fill="#FEFEFE"/>
<path d="M1184.74 63.2002L1204.37 63.2622L1204.29 191.792L1184.66 191.743L1184.74 63.2002Z" fill="#FEFEFE"/>
<path d="M831.253 109.151C835.343 108.972 840.183 109.083 844.343 109.068L841.803 128.773C804.153 121.149 813.173 167.681 813.163 191.768L794.483 191.752L793.683 191.298C792.303 188.656 793.013 119.594 793.043 110.722L813.233 110.727L813.173 122.577C818.883 114.924 822.173 111.826 831.253 109.151Z" fill="#FEFEFE"/>
</svg>
