<svg width="5220" height="1024" viewBox="0 0 5220 1024" fill="none" xmlns="http://www.w3.org/2000/svg">
<rect x="2.5" y="2.5" width="1019" height="1019" rx="37.5" fill="url(#paint0_radial_40_35)"/>
<rect x="2.5" y="2.5" width="1019" height="1019" rx="37.5" stroke="url(#paint1_linear_40_35)" stroke-width="5"/>
<path d="M377.38 359.348C347.73 359.584 161.43 365.59 149.506 353.84C142.286 346.726 142.028 330.23 141.802 320.6C141.265 297.665 134.887 223.532 149.886 207.812C177.71 196.768 479.866 202.142 526.755 203.528C541.735 226.913 557.597 250.63 573.394 273.516C671.934 416.287 764.207 565.659 864.091 707.277C885.856 744.731 916.584 785.02 940 822.887L769.195 822.733C752.596 822.725 704.233 821.469 689.577 823C683.545 810.17 664.663 783.06 656.129 770.262L594.041 677.559L384.084 362.899L393.825 822.749L156.089 822.571C155.904 771.404 153.664 720.48 153.464 669.313C153.332 635.261 153.153 601.363 151.575 567.344C224.611 497.575 303.103 428.67 377.38 359.348Z" fill="#FEFEFE"/>
<path d="M1469.67 273.379C1491.91 272.346 1515.89 272.595 1538.3 272.475C1533.85 418.846 1541 568.036 1537.96 714.637C1537.68 727.984 1539.12 741.542 1528.73 750.372C1507.41 741.275 1281.14 489.173 1247.82 452.102C1250.59 476.795 1255.54 738.141 1248.6 747.893C1246.02 751.524 1240.2 751.359 1235.95 752.188C1219.32 752.142 1188.69 753.562 1174.8 747.266C1165.88 726.592 1169.63 317.031 1170.7 265C1207.72 294.965 1277.12 376.114 1311.59 415.251C1359.99 470.195 1414.84 528.439 1461.64 583.918C1452.01 512.023 1457.9 369.275 1458.96 292.606C1459.11 281.591 1462.6 278.42 1469.67 273.379Z" fill="#FEFEFE"/>
<path d="M3864.64 443.541C3898.34 441.688 3920.18 443.32 3951.72 457.533C3962.2 462.252 3984.23 477.636 3992.89 478.032C3995.16 469.294 3997.15 462.252 4000.01 453.625C4013.5 444.269 4052.87 447.458 4070.21 447.79C4072.59 531.455 4069.45 615.895 4071.89 699.67C4072.39 717.248 4072.13 734.032 4070.16 751.527C4053.9 752.734 4018.77 753.536 4003.63 750.255C3995.22 741.876 3995.94 727.958 3995.3 715.782L3991.12 714.934C3970.54 734.162 3955.08 745.167 3927.06 752.826C3889.12 762.965 3848.69 757.306 3815 737.129C3737.4 690.601 3719.32 581.035 3764.84 505.684C3789.2 465.377 3821.51 453.413 3864.64 443.541ZM3927.29 695.108C4026.66 659.492 4007.51 492.402 3885.26 503.333C3789.67 529.4 3792.55 715.921 3927.29 695.108Z" fill="#FEFEFE"/>
<path d="M2426.06 443.625C2459.66 441.265 2492.04 442.206 2520.1 462.576C2528.54 468.714 2546.63 482.678 2556.54 481.056C2556.49 470.899 2555.04 459.359 2559.95 451.202C2575.57 445.09 2611.43 447.976 2629.48 448.86C2631.48 539.724 2633.56 661.678 2630.59 751.27C2610.53 752.081 2588.96 753.74 2569.09 752.855C2552.99 741.5 2560.84 724.429 2554.41 708.364C2488.25 801.062 2321.9 753.417 2305.57 639.934C2290.68 536.351 2320.27 466.65 2426.06 443.625ZM2484.83 695.441C2581.48 665.208 2574.68 492.956 2441.63 503.463C2346.05 539.632 2357.64 715.009 2484.83 695.441Z" fill="#FEFEFE"/>
<path d="M1739.54 442.395C1826.72 427.49 1909.37 486.38 1923.78 573.649C1938.19 660.918 1878.84 743.256 1791.51 757.165C1704.86 770.972 1623.34 712.193 1609.05 625.625C1594.76 539.047 1653.06 457.179 1739.54 442.395ZM1788.87 696.238C1866.08 669.13 1865.98 542.384 1795.07 508.178C1780.4 501.109 1762.31 502.344 1746.37 503.45C1722.95 512.925 1702.7 528.429 1694.49 552.781C1667.74 632.132 1700.72 702.267 1788.87 696.238Z" fill="#FEFEFE"/>
<path d="M4446.08 443.732C4454.19 443.216 4462.32 442.884 4470.45 442.728C4590.83 441.041 4608.49 526.153 4607.54 624.99C4546.71 629.129 4452.87 625.884 4388.95 626.741L4396.25 645.462C4424.41 717.163 4505.87 703.715 4563.52 679.271C4573.36 692.931 4582.3 716.73 4589.11 732.841C4523.3 759.461 4439.07 772.669 4377.25 732.298C4279.33 668.357 4292.45 492.307 4406.41 452.489C4417.98 448.452 4434.02 445.972 4446.08 443.732ZM4388.72 574.387C4421.67 573.788 4457.54 572.553 4490.25 573.3L4536.55 573.668C4529.4 538.836 4530.66 534.246 4506.38 508.281C4483.07 503.248 4470.28 501.377 4445.75 503.838C4404.9 517.194 4402.48 536.292 4388.72 574.387Z" fill="#FEFEFE"/>
<path d="M3062.91 443.743C3194 436.978 3237.18 502.126 3225.78 625.96C3154.33 627.222 3081.86 625.858 3009.7 627.057C3019.15 656.367 3029.78 682.056 3061.91 692.665C3096.37 704.039 3146.91 696.315 3179.6 680.894C3194.82 686.83 3203.25 717.598 3208.77 732.778C3195.27 738.991 3181.28 744.06 3166.95 747.923C3116.83 761.407 3048.24 762.689 3003.34 736.032C2901.86 675.788 2909.05 499.194 3021.81 454.832C3034 450.039 3050.11 446.757 3062.91 443.743ZM3008.72 575.034C3036.7 571.836 3076.41 572.896 3105.29 573.596C3121.78 573.79 3140.31 574.444 3156.63 573.956C3143.44 513.352 3131.94 499.047 3066.2 503.434C3025.74 518.763 3021.31 535.031 3008.72 575.034Z" fill="#FEFEFE"/>
<path d="M3466.4 273.407C3551.54 269.49 3663.84 272.947 3752 272.504C3753.36 289.86 3752.72 319.254 3752.91 337.532L3627.09 337.311C3631.69 368.207 3629.65 430.746 3629.51 464.168C3629.17 531.307 3629.18 598.445 3629.55 665.584C3629.88 695.042 3629.89 721.994 3628.74 751.406L3550.99 752.143C3547.26 712.528 3549.18 646.882 3549.18 604.75L3549.55 336.03C3518.71 339.127 3462.78 337.606 3429.75 337.541C3429.02 318.72 3425.14 293.953 3435.33 279.353C3443.35 272.145 3455.24 273.573 3466.4 273.407Z" fill="#FEFEFE"/>
<path d="M4826.54 444.158C4964.65 434.074 4964.09 528.588 4965.25 635.222C4965.69 674.543 4966.17 711.754 4962.96 751.176C4939.82 752.356 4913.3 751.526 4889.86 751.296C4882.79 679.926 4920.1 425.677 4784.27 522.053C4734.71 564.157 4754.47 686.766 4749.55 751.167C4727.84 752.577 4698.17 751.701 4675.86 751.655C4673.84 718.602 4668.52 466.98 4679.63 453.209C4694.91 448.868 4736.81 443.337 4748.36 454.896C4752.38 465.993 4749.54 482.142 4748.33 494.41C4776.99 462.039 4784.62 455.006 4826.54 444.158Z" fill="#FEFEFE"/>
<path d="M5139.43 311.816L5145.04 313.688C5154.59 328.463 5150.8 427.668 5148.7 449.172C5171.99 448.72 5195.29 448.398 5218.59 448.186C5220.51 473.109 5220.61 482.17 5218.02 507.001C5195.92 510.605 5171.67 510.633 5149.37 509.656C5154.03 570.978 5151.16 689.033 5149.27 750.983C5139.2 751.554 5127.81 751.591 5117.6 751.849L5077.23 751.029C5075.76 738.069 5074.83 724.584 5074.91 711.533C5075.28 644.431 5071.11 575.91 5073.97 508.965C5053.51 509.223 5038.1 513.96 5024.51 497.895C5020.65 485.055 5024.93 464.077 5026.78 450.039L5074.02 447.891C5073.36 437.134 5073.84 425.585 5073.87 414.782C5074.19 340.279 5057.16 327.403 5139.43 311.816Z" fill="#FEFEFE"/>
<path d="M2115.12 634.43C2130.83 589.22 2169.5 496.19 2197.43 455.228C2205.39 443.559 2262.14 448.555 2278.76 449.338C2269.49 471.838 2250.89 506.006 2239.43 528.625C2221.51 562.729 2137.29 729.267 2119.5 749.056C2115.77 749.812 2113.32 751.103 2109.74 749.361C2094.89 742.162 1961.31 480.649 1951.1 448.343C1996.31 451.495 2025.97 433.328 2048.72 483.516C2071.49 533.704 2095.81 582.602 2115.12 634.43Z" fill="#FEFEFE"/>
<path d="M4170.38 273.435C4193.4 272.311 4216.48 272.661 4239.54 272.753C4238.73 327.43 4242.44 739.986 4234.81 751.471C4213.82 752.595 4185.98 751.701 4164.45 751.59C4161.67 695.66 4156.19 294.589 4170.38 273.435Z" fill="#FEFEFE"/>
<path d="M2899.6 442.035L2902.87 441.86L2906.01 447.345C2905.61 455.511 2902.81 514.327 2894.79 513.617C2760.56 501.828 2794.06 621.947 2792.82 751.376C2768.09 751.487 2737.72 758.464 2719 746.574C2712.58 734.905 2714.97 733.329 2715.11 718.037C2712.66 628.169 2713.56 538.236 2717.8 448.423C2742.99 448.488 2768.18 448.239 2793.37 447.676L2790.39 493.929C2823.61 446.994 2844.97 442.542 2899.6 442.035Z" fill="#FEFEFE"/>
<defs>
<radialGradient id="paint0_radial_40_35" cx="0" cy="0" r="1" gradientUnits="userSpaceOnUse" gradientTransform="rotate(45) scale(1448.15)">
<stop/>
<stop offset="0.592972" stop-color="#020004"/>
<stop offset="1" stop-color="#7F03E3"/>
</radialGradient>
<linearGradient id="paint1_linear_40_35" x1="512" y1="0" x2="512" y2="1024" gradientUnits="userSpaceOnUse">
<stop offset="0.301141" stop-color="#25013F"/>
<stop offset="1" stop-color="#490978"/>
</linearGradient>
</defs>
</svg>
