<svg width="64" height="64" viewBox="0 0 64 64" fill="none" xmlns="http://www.w3.org/2000/svg">
<path d="M20.8 5.33333H43.2C51.7334 5.33333 58.6667 12.2667 58.6667 20.8V43.2C58.6667 47.302 57.0372 51.236 54.1366 54.1366C51.2361 57.0371 47.3021 58.6667 43.2 58.6667H20.8C12.2667 58.6667 5.33337 51.7333 5.33337 43.2V20.8C5.33337 16.698 6.96289 12.764 9.86346 9.86341C12.764 6.96285 16.698 5.33333 20.8 5.33333ZM20.2667 10.6667C17.7206 10.6667 15.2788 11.6781 13.4785 13.4784C11.6781 15.2788 10.6667 17.7206 10.6667 20.2667V43.7333C10.6667 49.04 14.96 53.3333 20.2667 53.3333H43.7334C46.2795 53.3333 48.7213 52.3219 50.5216 50.5216C52.322 48.7212 53.3334 46.2794 53.3334 43.7333V20.2667C53.3334 14.96 49.04 10.6667 43.7334 10.6667H20.2667ZM46 14.6667C46.8841 14.6667 47.7319 15.0179 48.3571 15.643C48.9822 16.2681 49.3334 17.1159 49.3334 18C49.3334 18.8841 48.9822 19.7319 48.3571 20.357C47.7319 20.9821 46.8841 21.3333 46 21.3333C45.116 21.3333 44.2681 20.9821 43.643 20.357C43.0179 19.7319 42.6667 18.8841 42.6667 18C42.6667 17.1159 43.0179 16.2681 43.643 15.643C44.2681 15.0179 45.116 14.6667 46 14.6667ZM32 18.6667C35.5363 18.6667 38.9276 20.0714 41.4281 22.5719C43.9286 25.0724 45.3334 28.4638 45.3334 32C45.3334 35.5362 43.9286 38.9276 41.4281 41.4281C38.9276 43.9286 35.5363 45.3333 32 45.3333C28.4638 45.3333 25.0724 43.9286 22.572 41.4281C20.0715 38.9276 18.6667 35.5362 18.6667 32C18.6667 28.4638 20.0715 25.0724 22.572 22.5719C25.0724 20.0714 28.4638 18.6667 32 18.6667ZM32 24C29.8783 24 27.8435 24.8428 26.3432 26.3431C24.8429 27.8434 24 29.8783 24 32C24 34.1217 24.8429 36.1566 26.3432 37.6569C27.8435 39.1571 29.8783 40 32 40C34.1218 40 36.1566 39.1571 37.6569 37.6569C39.1572 36.1566 40 34.1217 40 32C40 29.8783 39.1572 27.8434 37.6569 26.3431C36.1566 24.8428 34.1218 24 32 24Z" fill="white"/>
</svg>
