<svg width="64" height="64" viewBox="0 0 64 64" fill="none" xmlns="http://www.w3.org/2000/svg">
<path d="M54.5866 5.33333H9.41329C8.9055 5.32628 8.40129 5.41933 7.92946 5.60716C7.45763 5.79499 7.02743 6.07392 6.66341 6.42803C6.2994 6.78214 6.0087 7.20449 5.80793 7.67096C5.60716 8.13743 5.50024 8.63888 5.49329 9.14667V54.8533C5.50024 55.3611 5.60716 55.8626 5.80793 56.329C6.0087 56.7955 6.2994 57.2179 6.66341 57.572C7.02743 57.9261 7.45763 58.205 7.92946 58.3928C8.40129 58.5807 8.9055 58.6737 9.41329 58.6667H54.5866C55.0944 58.6737 55.5986 58.5807 56.0704 58.3928C56.5423 58.205 56.9725 57.9261 57.3365 57.572C57.7005 57.2179 57.9912 56.7955 58.192 56.329C58.3927 55.8626 58.4997 55.3611 58.5066 54.8533V9.14667C58.4997 8.63888 58.3927 8.13743 58.192 7.67096C57.9912 7.20449 57.7005 6.78214 57.3365 6.42803C56.9725 6.07392 56.5423 5.79499 56.0704 5.60716C55.5986 5.41933 55.0944 5.32628 54.5866 5.33333ZM21.5733 49.9733H13.5733V25.9733H21.5733V49.9733ZM17.5733 22.6133C16.47 22.6133 15.4119 22.175 14.6317 21.3949C13.8516 20.6147 13.4133 19.5566 13.4133 18.4533C13.4133 17.35 13.8516 16.2919 14.6317 15.5118C15.4119 14.7316 16.47 14.2933 17.5733 14.2933C18.1591 14.2269 18.7524 14.2849 19.3143 14.4637C19.8762 14.6424 20.3939 14.9378 20.8337 15.3306C21.2735 15.7233 21.6254 16.2045 21.8663 16.7426C22.1072 17.2808 22.2317 17.8637 22.2317 18.4533C22.2317 19.0429 22.1072 19.6259 21.8663 20.164C21.6254 20.7022 21.2735 21.1834 20.8337 21.5761C20.3939 21.9688 19.8762 22.2642 19.3143 22.443C18.7524 22.6217 18.1591 22.6798 17.5733 22.6133ZM50.4266 49.9733H42.4266V37.0933C42.4266 33.8667 41.28 31.76 38.3733 31.76C37.4737 31.7666 36.5978 32.0487 35.8635 32.5685C35.1292 33.0882 34.5719 33.8205 34.2666 34.6667C34.0579 35.2934 33.9675 35.9535 34 36.6133V49.9467H26V25.9467H34V29.3333C34.7267 28.0723 35.7837 27.0334 37.0571 26.3285C38.3306 25.6237 39.7721 25.2796 41.2266 25.3333C46.56 25.3333 50.4266 28.7733 50.4266 36.16V49.9733Z" fill="white"/>
</svg>
