<svg width="48" height="48" viewBox="0 0 48 48" fill="none" xmlns="http://www.w3.org/2000/svg">
<path d="M40.94 3.99979H7.06C6.67915 3.9945 6.301 4.06429 5.94713 4.20516C5.59326 4.34603 5.2706 4.55523 4.99759 4.82082C4.72458 5.0864 4.50656 5.40316 4.35598 5.75301C4.2054 6.10286 4.12521 6.47895 4.12 6.85979V41.1398C4.12521 41.5206 4.2054 41.8967 4.35598 42.2466C4.50656 42.5964 4.72458 42.9132 4.99759 43.1788C5.2706 43.4443 5.59326 43.6535 5.94713 43.7944C6.301 43.9353 6.67915 44.0051 7.06 43.9998H40.94C41.3208 44.0051 41.699 43.9353 42.0529 43.7944C42.4067 43.6535 42.7294 43.4443 43.0024 43.1788C43.2754 42.9132 43.4934 42.5964 43.644 42.2466C43.7946 41.8967 43.8748 41.5206 43.88 41.1398V6.85979C43.8748 6.47895 43.7946 6.10286 43.644 5.75301C43.4934 5.40316 43.2754 5.0864 43.0024 4.82082C42.7294 4.55523 42.4067 4.34603 42.0529 4.20516C41.699 4.06429 41.3208 3.9945 40.94 3.99979ZM16.18 37.4798H10.18V19.4798H16.18V37.4798ZM13.18 16.9598C12.3525 16.9598 11.5589 16.6311 10.9738 16.046C10.3887 15.4608 10.06 14.6673 10.06 13.8398C10.06 13.0123 10.3887 12.2187 10.9738 11.6336C11.5589 11.0485 12.3525 10.7198 13.18 10.7198C13.6194 10.67 14.0643 10.7135 14.4857 10.8476C14.9071 10.9816 15.2955 11.2032 15.6253 11.4977C15.9551 11.7923 16.219 12.1531 16.3997 12.5568C16.5804 12.9604 16.6738 13.3976 16.6738 13.8398C16.6738 14.282 16.5804 14.7192 16.3997 15.1228C16.219 15.5264 15.9551 15.8873 15.6253 16.1819C15.2955 16.4764 14.9071 16.698 14.4857 16.832C14.0643 16.9661 13.6194 17.0096 13.18 16.9598ZM37.82 37.4798H31.82V27.8198C31.82 25.3998 30.96 23.8198 28.78 23.8198C28.1053 23.8247 27.4484 24.0363 26.8977 24.4261C26.347 24.8159 25.929 25.3651 25.7 25.9998C25.5435 26.4699 25.4757 26.9649 25.5 27.4598V37.4598H19.5V19.4598H25.5V21.9998C26.0451 21.054 26.8378 20.2748 27.7929 19.7462C28.7479 19.2176 29.8291 18.9595 30.92 18.9998C34.92 18.9998 37.82 21.5798 37.82 27.1198V37.4798Z" fill="white"/>
</svg>
