<svg width="905" height="275" viewBox="0 0 905 275" fill="none" xmlns="http://www.w3.org/2000/svg">
<path d="M213.758 78.2651L214.068 78.5996C212.662 82.2408 199.487 100.082 196.458 104.261L145.41 174.477L131.705 193.289C129.43 196.406 125.473 201.469 123.82 204.665L124.015 205.237C126.655 206.045 140.043 207.578 143.878 208.107L193.97 214.889L366.306 238.42C367.466 239.382 367.162 238.894 367.512 240.362L366.931 241.207C365.593 241.824 308.657 243.044 302.61 243.173C288.431 243.906 273.109 243.672 258.732 244.132L106.051 248.235C100.798 244.008 63.3723 203.389 61.9297 199.484C63.6072 197.441 72.2334 190.692 74.7465 188.681L104.458 165.108C128.755 145.442 153.189 125.947 177.76 106.624C189.678 97.1759 201.54 87.2639 213.758 78.2651Z" fill="#7F00E2"/>
<path d="M271.534 28.0747C276.47 27.8899 289.289 26.4099 292.746 30.2544C305.446 44.3761 318.664 58.0612 331.351 72.2012C332.393 73.3619 333.362 75.0225 333.538 76.5857C330.856 79.3713 320.776 87.0531 317.375 89.7607L284.506 115.961C249.557 143.849 214.011 172.906 178.809 200.313C180.569 197.339 184.909 191.778 187.157 188.642L205.347 163.386L256.036 93.5958C258.872 89.1517 269.643 74.4983 272.987 70.5659C250.616 66.7185 224.553 63.772 201.832 60.7065L84.0493 44.6088L47.228 39.5663C44.4885 39.1871 29.7494 37.9006 28.9204 35.652C31.0524 33.6361 49.6888 33.851 53.5174 33.7166C74.3282 33.0618 95.1429 32.5405 115.96 32.1527L271.534 28.0747Z" fill="black"/>
<path d="M397.264 102.802C402.922 102.499 410.195 102.719 415.945 102.735L449.51 102.88C441.848 117.462 432.872 132.432 424.87 146.918C421.991 152.129 413.711 167.462 410.56 171.719C422.888 172.084 436.008 171.448 448.036 172.032C448.197 175.087 448.656 179.338 447.816 182.167C429.367 182.45 409.148 182.352 390.712 182.059C392.781 177.051 401.702 162.058 404.645 157.021C413.074 142.59 421.295 127.309 429.917 113.116C418.616 113.306 406.908 113.135 395.539 113.233C395.439 110.328 395.261 107.194 395.56 104.289C395.691 103.022 396.234 103.097 397.264 102.802Z" fill="black"/>
<path d="M620.13 102.807L629.597 102.549C629.626 112.398 630.185 131.698 629.013 140.793C636.771 131.143 651.082 128.56 659.645 137.265C666.325 144.056 665.433 173.213 664.765 182.091C660.93 182.323 656.459 182.164 652.563 182.108C652.17 174.846 652.3 166.831 652.297 159.496C652.454 147.799 649.405 134.861 634.394 145.849C627.585 150.833 629.723 172.957 629.648 182.06C625.17 182.339 621.973 182.228 617.452 182.048C617.144 165.315 617.411 148.064 617.355 131.302C617.336 125.674 617.047 108.777 617.759 103.848C618.71 102.785 618.399 103.103 620.13 102.807Z" fill="black"/>
<path d="M491.186 132.294C492.364 132.245 493.543 132.216 494.723 132.209C515.26 132.131 517.951 144.577 517.932 161.799C507.755 162.099 491.664 161.121 482.181 162.146C482.246 162.38 482.313 162.614 482.381 162.847C486.474 176.815 499.189 174.125 510.297 170.751L510.769 170.78C511.934 171.495 514.193 177.036 514.947 178.716C512.174 180.176 509.232 181.288 506.187 182.028C497.971 184.015 487.658 183.691 480.209 179.137C468.425 171.986 466.235 154.329 473.256 143.147C477.615 136.206 483.654 133.979 491.186 132.294ZM481.918 153.38L494.599 153.386L506.232 153.377C505.036 146.28 503.026 141.037 494.197 142.114C485.824 142.825 484.381 145.779 481.918 153.38Z" fill="black"/>
<path d="M828.372 132.309C849.726 131.126 855.89 141.759 854.856 161.672C845.179 162.597 829.951 161.476 819.164 162.091C819.432 163.025 819.721 163.953 820.03 164.875C824.039 176.635 838.475 173.755 847.469 170.579C849.082 171.275 851.159 176.843 852.017 178.823C841.162 183.865 827.711 185.483 817.011 178.979C805.461 171.959 803.372 153.993 810.357 143.115C814.864 136.097 820.668 133.961 828.372 132.309ZM819.009 153.312L832.16 153.388L843.316 153.315C841.949 146.252 840.063 140.888 831.091 142.117C822.888 142.818 821.416 145.963 819.009 153.312Z" fill="black"/>
<path d="M724.777 133.07L737.993 133.115C733.353 145.154 728.635 157.163 723.839 169.142C722.901 172.342 718.441 183.119 717.026 186.531C714.266 193.187 710.622 203.974 707.465 210.02C703.693 210.188 698.742 209.987 694.886 209.937L705.467 184.277C699.65 168.202 690.373 148.979 685.453 133.169C689.353 133.067 695.116 132.993 698.837 133.511C699.295 134.449 699.71 135.559 700.041 136.557C703.863 148.084 708.075 159.686 711.435 171.347C714.874 160.967 720.516 142.88 724.777 133.07Z" fill="black"/>
<path d="M568.012 132.294C589.488 131.546 589.814 144.16 589.873 162.119C589.894 168.765 590.197 175.401 589.663 182.085C585.232 182.275 581.944 182.227 577.506 182.033C577.289 170.838 582.708 127.931 559.427 145.975C551.931 154.934 555.242 170.003 554.578 182.127C550.671 182.265 546.313 182.164 542.371 182.154C542.219 165.857 542.213 149.559 542.352 133.262C546.223 132.995 550.545 133.154 554.461 133.219C554.541 136.68 554.503 138.368 554.112 141.821C558.589 135.454 560.809 134.17 568.012 132.294Z" fill="black"/>
<path d="M781.431 132.335C783.623 132.177 786.74 132.214 789.005 132.17C788.597 136.508 788.011 140.464 787.354 144.775C763.483 141.971 770.426 165.821 769.912 182.082C766.192 182.337 761.416 182.187 757.603 182.16C757.275 180.488 757.375 169.688 757.375 167.454C757.334 156.017 757.387 144.581 757.534 133.145L769.951 133.081C769.909 135.781 769.782 138.605 769.698 141.314C773.21 135.707 775.138 134.054 781.431 132.335Z" fill="black"/>
</svg>
